<svg viewBox="0 0 200 260" xmlns="http://www.w3.org/2000/svg" fill="none" stroke="black" stroke-width="2">
  <!-- Ornamental Top -->
  <path d="M 100 20 Q 90 15 80 20 Q 70 15 60 25 Q 50 20 45 30 L 40 35 Q 35 40 40 45 L 45 50" stroke-width="2.5"/>
  <path d="M 100 20 Q 110 15 120 20 Q 130 15 140 25 Q 150 20 155 30 L 160 35 Q 165 40 160 45 L 155 50" stroke-width="2.5"/>
  
  <!-- Central AA Monogram -->
  <g transform="translate(100, 90)">
    <!-- Left A -->
    <path d="M -35 -20 L -20 30 M -35 -20 L -50 30 M -45 10 L -25 10" stroke-width="3" fill="none"/>
    <!-- Right A -->
    <path d="M 35 -20 L 20 30 M 35 -20 L 50 30 M 25 10 L 45 10" stroke-width="3" fill="none"/>
    <!-- Central vertical line -->
    <line x1="0" y1="-25" x2="0" y2="35" stroke-width="2.5"/>
  </g>
  
  <!-- Ornamental sides - Left -->
  <path d="M 45 60 Q 35 65 30 75 Q 28 85 35 95 L 40 100 Q 35 105 30 110 Q 28 115 30 120 L 35 130" stroke-width="2"/>
  
  <!-- Ornamental sides - Right -->
  <path d="M 155 60 Q 165 65 170 75 Q 172 85 165 95 L 160 100 Q 165 105 170 110 Q 172 115 170 120 L 165 130" stroke-width="2"/>
  
  <!-- Bottom decorative element -->
  <path d="M 80 135 Q 85 140 90 142 L 100 145 L 110 142 Q 115 140 120 135" stroke-width="2"/>
  <path d="M 85 145 Q 90 150 100 152 Q 110 150 115 145" stroke-width="2"/>
  
  <!-- Curved banner -->
  <path d="M 40 160 Q 100 170 160 160" stroke="black" stroke-width="2" fill="none"/>
  <path d="M 40 165 Q 100 175 160 165" stroke="black" stroke-width="2" fill="none"/>
  
  <!-- Arabic Text (stylized) -->
  <text x="100" y="190" text-anchor="middle" font-size="14" font-family="serif" fill="black" stroke="none">الملا نا ازاد ايڪيشنل ٽرسٽ</text>
  
  <!-- English Text -->
  <text x="100" y="210" text-anchor="middle" font-size="12" font-family="Arial, sans-serif" fill="black" stroke="none">Maulana Azad Educational Trust</text>
</svg>
